<?xml version="1.0" encoding="utf-8"?>
<!-- Generator: Adobe Illustrator 27.2.0, SVG Export Plug-In . SVG Version: 6.00 Build 0)  -->
<svg version="1.1" id="Layer_1" xmlns="http://www.w3.org/2000/svg" xmlns:xlink="http://www.w3.org/1999/xlink" x="0px"
  y="0px" viewBox="0 0 49.8 17.3" style="enable-background:new 0 0 49.8 17.3;" xml:space="preserve">
  <style type="text/css">
    .st0 {
      fill: #000;
    }
  </style>
  <g>
    <path class="st0"
      d="M0.9,11.6c-0.2,0-0.4-0.1-0.6-0.2C0.1,11.2,0,11.1,0,10.8c0-0.4,0.2-1,0.6-1.7c0.4-0.7,1-1.4,1.6-2.2
		c0.6-0.7,1.2-1.4,1.9-1.9c0.6-0.5,1.2-0.8,1.6-0.8c0.1,0,0.3,0,0.4,0.1c0.1,0.1,0.2,0.2,0.2,0.3c0,0.2-0.2,0.5-0.5,0.9
		C5.3,6.3,4.7,6.9,3.9,7.4C3.1,8,2.4,8.4,1.7,8.7c-0.8,1.1-1.2,1.9-1.2,2.4c0,0.1,0,0.1,0,0.2c0.3,0,0.7-0.2,1.3-0.5
		C2.5,10.4,3,10,3.6,9.6c0.6-0.4,1-0.8,1.3-1.1l0.2-0.2c0.1,0,0.1,0,0.1,0.1c-1,1.1-2.1,2-3.3,2.7C1.5,11.5,1.2,11.6,0.9,11.6z
		 M2,8.4l0.1-0.1C2.6,8,3.3,7.5,3.9,7S5,6,5.4,5.5c0.3-0.3,0.4-0.6,0.4-0.9C5.2,4.9,4.5,5.4,3.7,6.2C3,7,2.4,7.8,2,8.4z" />
    <path class="st0" d="M6.6,10.6c-0.1,0-0.2,0-0.4-0.1C6.1,10.4,6,10.3,6,10.2c0-0.3,0.1-0.6,0.3-1C6.1,9.4,5.8,9.7,5.5,9.9
		c-0.3,0.2-0.6,0.3-0.8,0.3c-0.1,0-0.2-0.1-0.3-0.2C4.4,9.9,4.3,9.8,4.3,9.7c0-0.3,0.1-0.6,0.4-1c0.3-0.5,0.7-0.9,1.1-1.1
		c0.4-0.2,0.8-0.4,1.2-0.4c0.2,0,0.3,0,0.5,0.1c0.1,0.1,0.2,0.2,0.3,0.4c0,0,0,0.1,0,0.1c0,0,0,0.1,0,0.1C7.9,8,7.9,8,7.8,8
		c0,0,0,0,0,0s0,0,0,0c0,0,0,0,0,0c-0.1,0-0.3,0-0.4,0C6.9,7.9,6.5,8,6.1,8.2c-0.4,0.2-0.8,0.5-1.2,1C4.7,9.5,4.6,9.7,4.5,9.9l0.1,0
		c0.3,0,0.6-0.2,1.1-0.5s0.8-0.7,1.2-1C7.1,8.1,7.2,8,7.3,8c0,0,0.1,0,0.2,0s0.2,0.1,0.2,0.1c0.1,0,0.1,0.1,0.1,0.1c0,0,0,0,0,0
		c0,0,0,0,0,0s0,0-0.1,0C7.6,8.5,7.4,8.7,7.2,8.9C6.8,9.5,6.5,10,6.5,10.3c0.6-0.2,1.4-0.7,2.4-1.6l0.3-0.2c0.2-0.1,0.2-0.2,0.2-0.2
		l0.1,0c0,0,0,0,0,0L9.3,8.6C9.1,8.8,8.8,9,8.4,9.4C7.5,10.2,6.9,10.6,6.6,10.6z" />
    <path class="st0" d="M11.4,14.1c0,0-0.1,0-0.2-0.1c-0.1,0-0.1-0.1-0.2-0.1c0-0.1-0.1-0.1-0.1-0.1c0,0,0,0,0,0c0,0,0,0,0-0.1
		s0.1-0.1,0.2-0.3l0.4-0.5c0.8-1.2,1.5-2.2,2.2-3.3c1.7-2.6,2.7-4.5,3-5.6c0-0.2,0-0.3,0-0.4c0-0.1,0-0.2,0-0.2
		c-0.5,0-1,0.1-1.5,0.2c-1,0.2-2,0.6-3.1,1.1s-2,1.2-2.8,2C9.3,6.9,9.2,7,9,7.2C8.9,7.5,8.8,7.7,8.8,7.9l0.1,0c0.3,0,0.6,0,0.9-0.1
		l0.1,0c0.5-0.1,1-0.2,1.6-0.2c0.4,0,0.7,0.1,1,0.2c0.4,0.2,0.6,0.5,0.6,1c0,0.1,0,0.2,0,0.2c0,0,0,0.1-0.1,0.1
		c-0.1,0-0.1,0-0.1-0.1c0-0.1,0-0.1,0-0.2c-0.1-0.3-0.2-0.6-0.4-0.7c-0.2-0.1-0.5-0.2-0.8-0.2c-0.4,0-1,0.1-1.7,0.3
		C9.6,8.2,9.3,8.2,9,8.2c-0.2,0-0.3,0-0.4-0.1C8.4,8.1,8.4,7.9,8.4,7.6c0-0.1,0-0.1,0-0.2c0.1-0.5,0.5-1.1,1.1-1.6
		c1-0.8,2.1-1.6,3.5-2.2c1.4-0.6,2.6-0.9,3.6-0.9c0.1,0,0.3,0,0.4,0.1c0.4,0.2,0.6,0.5,0.6,1c0,0.1,0,0.3-0.1,0.5
		c-0.4,1.5-1.6,3.5-3.4,6.2l0.7-0.9c2-2.3,3.8-4.4,5.4-6.3c0.4-0.5,0.6-0.7,0.6-0.8c0.3-0.4,0.6-0.6,0.8-0.6c0.1,0,0.2,0,0.3,0.1
		c0.1,0.1,0.2,0.2,0.2,0.4c0,0.1,0,0.2-0.1,0.4C22,3.3,21.9,3.7,21.7,4c0,0.1,0,0.1-0.1,0.2c-0.8,1.9-1.7,3.8-2.7,5.6
		c1.7-2.1,3.6-4,5.6-5.7l0,0c0.4-0.4,0.7-0.5,0.9-0.5c0.1,0,0.2,0,0.3,0.1c0.1,0.1,0.1,0.2,0.1,0.2c0,0.1-0.1,0.4-0.3,0.7
		C25.3,5,25.1,5.3,25,5.4L24.7,6c-1.6,2.5-2.4,4.1-2.4,4.7c0,0,0,0.1,0,0.1c0,0.1,0.1,0.1,0.1,0.1c0,0,0.1,0,0.1,0
		c0.5-0.1,1.2-0.4,1.8-0.9c0.7-0.5,1.3-0.9,1.8-1.3c0.1-0.1,0.2-0.2,0.2-0.2s0,0,0.1,0c0,0,0,0,0,0c0,0-0.1,0.1-0.3,0.3l-0.3,0.3
		c-0.1,0.1-0.5,0.4-1,0.8c-1.1,0.8-1.9,1.2-2.3,1.2c-0.1,0-0.2,0-0.4-0.1c-0.2-0.1-0.3-0.3-0.3-0.6c0-0.1,0-0.2,0-0.4
		c0.2-0.7,0.5-1.5,1-2.3c0.5-0.9,0.9-1.7,1.4-2.4l0.5-0.8c-0.7,0.6-1.4,1.2-2.1,1.9c-1.2,1.1-2.4,2.3-3.5,3.5
		c-0.3,0.3-0.6,0.7-0.9,1.1L18,11.5c-0.2,0.3-0.3,0.5-0.4,0.7c0,0-0.1,0-0.1,0c0,0-0.1,0-0.2-0.1c-0.1,0-0.1-0.1-0.2-0.1
		c0,0-0.1-0.1-0.1-0.2c0,0,0,0,0,0s0-0.1,0.1-0.1s0.1-0.2,0.2-0.3c0.1-0.1,0.1-0.2,0.2-0.3c0.1-0.1,0.1-0.2,0.1-0.2
		c0.5-0.9,0.9-1.7,1.4-2.6c0.6-1.1,1.1-2.2,1.6-3.4l0-0.1c0.3-0.6,0.5-1.1,0.7-1.7c-1.5,1.8-3.1,3.5-4.7,5.2l-1.2,1.3
		c-0.3,0.3-0.7,0.7-1,1.1l-0.5,0.5c-0.7,0.7-1.2,1.2-1.4,1.6l-0.8,1.1l-0.1,0.1C11.6,14.1,11.5,14.1,11.4,14.1z" />
    <path class="st0"
      d="M26.7,10.3c-0.1,0-0.3,0-0.4-0.1C26.1,10.1,26,9.9,26,9.6c0-0.1,0-0.2,0.1-0.4c0.1-0.2,0.1-0.4,0.2-0.5
		c0.1-0.2,0.3-0.4,0.4-0.4c0-0.1-0.1-0.2-0.1-0.3c0-0.3,0.1-0.5,0.3-0.6c0.2-0.1,0.4-0.2,0.7-0.2c0.3,0,0.6,0.1,0.8,0.4
		c0.2,0.2,0.3,0.5,0.3,0.9c0,0.1,0,0.2,0,0.3c0.4-0.1,0.8-0.2,1.2-0.3c0,0,0,0,0.1,0c0,0,0,0,0,0s0,0,0,0c-0.4,0.3-0.9,0.4-1.4,0.5
		c-0.2,0.4-0.5,0.7-0.9,0.9C27.3,10.2,27,10.3,26.7,10.3z M26.8,9.9c0.1,0,0.2-0.1,0.4-0.2c0.2-0.1,0.3-0.2,0.5-0.4
		C27.9,9.2,28,9.1,28.2,9c-0.4,0-0.7-0.1-0.9-0.2c0,0,0,0,0,0c0,0,0,0,0,0c0,0,0,0-0.1,0.1C27,9,27,9.1,26.9,9.2
		c-0.1,0.2-0.2,0.4-0.2,0.5C26.7,9.8,26.7,9.9,26.8,9.9L26.8,9.9z M28.2,8.7l0.1,0c0.1-0.1,0.1-0.3,0.1-0.4c0-0.2-0.1-0.4-0.2-0.6
		S28,7.4,27.7,7.4c-0.2,0-0.4,0.1-0.5,0.2S27,7.9,27,8.1c0,0.1,0,0.2,0.1,0.3c0.2,0.1,0.3,0.2,0.5,0.3C27.8,8.7,28,8.7,28.2,8.7z" />
    <path class="st0" d="M29,10.8C29,10.8,29,10.8,29,10.8C28.9,10.8,28.9,10.8,29,10.8c-0.1,0-0.1,0-0.2,0c-0.1,0-0.1-0.1-0.2-0.1
		c-0.1,0-0.1-0.1-0.1-0.1c0,0,0-0.1,0.1-0.2c0.4-0.9,0.9-1.8,1.4-2.6c0,0,0.1-0.1,0.1-0.1c0-0.1,0.1-0.1,0.1-0.1c0,0,0.1,0,0.2,0.1
		c0.1,0,0.2,0.1,0.3,0.1c0.1,0.1,0.1,0.1,0.1,0.2c0,0,0,0,0,0c0,0,0,0,0,0c-0.3,0.4-0.6,0.7-0.8,1.1c0.2-0.2,0.4-0.4,0.7-0.7
		c0.3-0.3,0.6-0.6,0.9-0.8s0.5-0.4,0.7-0.4c0.1,0,0.2,0,0.3,0.1c0.1,0.1,0.2,0.2,0.2,0.3c0,0.2-0.1,0.4-0.2,0.7
		c-0.1,0.3-0.2,0.5-0.4,0.6c0,0,0,0,0,0c0,0,0,0,0,0c0,0,0,0,0,0c0,0,0,0,0,0c0,0-0.1,0-0.2-0.1s-0.2-0.1-0.3-0.1
		c-0.1-0.1-0.1-0.1-0.1-0.1l0,0c0.1-0.1,0.3-0.3,0.5-0.5c0.2-0.2,0.3-0.4,0.3-0.6c-0.6,0.3-1.2,0.7-1.7,1.2c-0.5,0.5-1,1-1.4,1.5
		c-0.1,0.2-0.2,0.3-0.2,0.4C29,10.8,29,10.8,29,10.8z" />
    <path class="st0" d="M32.9,10.2c-0.1,0-0.2-0.1-0.3-0.2c-0.1-0.1-0.1-0.2-0.1-0.4c0-0.3,0.1-0.6,0.4-1c0.3-0.5,0.7-0.9,1.1-1.1
		c0.4-0.2,0.8-0.4,1.2-0.4c0.2,0,0.3,0,0.5,0.1C35.9,7.4,36,7.5,36,7.7c0,0,0,0.1,0,0.1c0,0,0,0.1,0,0.1C36.1,8,36.1,8,36,8
		c0,0,0,0-0.1,0c-0.1-0.1-0.2-0.1-0.4-0.1c-0.4,0-0.8,0.1-1.3,0.3s-0.8,0.5-1.2,1c-0.2,0.2-0.3,0.4-0.3,0.6c0,0,0,0,0,0
		c0.2,0,0.5-0.1,0.8-0.3c0.6-0.4,1.2-0.9,1.7-1.5c0,0,0,0,0.1,0c0,0,0,0.1,0,0.1l0,0c0,0,0,0,0,0.1c0,0,0,0,0,0c0,0,0,0,0,0
		c-0.2,0.2-0.4,0.5-0.7,0.7c-0.3,0.3-0.6,0.5-0.9,0.7C33.4,10.1,33.1,10.2,32.9,10.2z M34.7,10.6c-0.1,0-0.1,0-0.2-0.1
		s-0.1-0.2-0.2-0.2c0-0.1,0-0.1,0-0.2c0-0.2,0-0.3,0.1-0.5c0.1-0.3,0.3-0.6,0.5-1c0.3-0.5,0.5-0.7,0.6-0.7c0,0,0.1,0,0.2,0.1
		c0.1,0.1,0.1,0.1,0.2,0.2C36,8.2,36,8.3,36,8.4v0c0,0,0,0,0,0c0,0,0,0,0,0s0,0,0,0c-0.2,0.1-0.5,0.4-0.8,0.9
		c-0.2,0.3-0.4,0.6-0.4,0.9c0.3-0.1,0.6-0.2,0.9-0.3l1.3-0.4c1.1-0.4,2.2-0.7,3.3-1c1.2-0.4,2.3-0.6,3.5-0.9
		c0.7-0.1,1.4-0.2,2.1-0.2c1.1,0,2,0.3,2.6,0.8c0.3,0.3,0.5,0.6,0.6,1C49,9.4,49,9.5,49,9.6c0,0,0,0,0,0c0,0-0.1,0-0.1,0
		c-0.1-0.1-0.1-0.1-0.2-0.2c0,0,0-0.1-0.1-0.2c0-0.3-0.2-0.6-0.4-0.8c-0.5-0.4-1.3-0.7-2.5-0.7c-0.8,0-1.5,0.1-2.3,0.2
		c-2,0.4-4.1,0.9-6.1,1.7l-1.2,0.4C35.3,10.4,34.8,10.6,34.7,10.6z" />
  </g>
</svg>
